grf
version=1
nRows=52
nColumns=19
inDegrees=yes
endheader
time	ground_force_1_vx	ground_force_1_vy	ground_force_1_vz	ground_force_1_px	ground_force_1_py	ground_force_1_pz	ground_moment_1_mx	ground_moment_1_my	ground_moment_1_mz	ground_force_2_vx	ground_force_2_vy	ground_force_2_vz	ground_force_2_px	ground_force_2_py	ground_force_2_pz	ground_moment_2_mx	ground_moment_2_my	ground_moment_2_mz
3.842000	26.479216	1272.619751	-366.874207	0.138111	0.000000	-0.777202	0.000000	8.935758	0.000000	-19.123611	1268.341309	402.351654	0.163957	0.000000	-1.573883	0.000000	-9.814065	0.000000
3.843000	26.106361	1281.090210	-365.538239	0.138847	0.000000	-0.774278	0.000000	8.665347	0.000000	-18.560257	1265.629639	402.552765	0.163221	0.000000	-1.573865	0.000000	-10.091722	0.000000
3.844000	27.517591	1280.796753	-366.474426	0.138046	0.000000	-0.774126	0.000000	9.376517	0.000000	-18.721354	1273.760742	401.064941	0.164336	0.000000	-1.573552	0.000000	-9.613031	0.000000
3.845000	27.154625	1282.726929	-368.683044	0.137974	0.000000	-0.773828	0.000000	9.259913	0.000000	-18.640184	1280.936035	401.104126	0.164375	0.000000	-1.573425	0.000000	-9.419898	-0.000000
3.846000	28.081018	1273.739502	-369.047577	0.137786	0.000000	-0.773971	0.000000	9.455665	0.000000	-18.438643	1281.727783	400.540955	0.164211	0.000000	-1.573290	0.000000	-9.392630	-0.000000
3.847000	28.764416	1285.456299	-367.269287	0.137703	0.000000	-0.774907	0.000000	9.229592	0.000000	-18.881622	1280.458618	400.340271	0.164129	0.000000	-1.573499	0.000000	-9.520135	-0.000000
3.848000	30.135401	1288.510620	-370.776550	0.137528	0.000000	-0.774759	-0.000000	9.582521	0.000000	-19.042305	1270.261963	401.949524	0.163592	0.000000	-1.574820	0.000000	-9.863090	-0.000000
3.849000	30.579233	1288.355103	-369.366547	0.137581	0.000000	-0.774315	0.000000	9.431392	0.000000	-19.162127	1283.483765	400.580475	0.163980	0.000000	-1.573141	0.000000	-9.363399	-0.000000
3.850000	28.200989	1290.920410	-371.461914	0.137734	0.000000	-0.773639	0.000000	9.549298	0.000000	-18.799900	1292.094971	400.700317	0.164263	0.000000	-1.573967	0.000000	-9.170045	-0.000000
3.851000	31.665077	1301.046265	-368.675323	0.137384	0.000000	-0.774300	0.000000	9.285898	0.000000	-19.725342	1290.656250	400.861389	0.164323	0.000000	-1.573404	0.000000	-9.202335	-0.000000
3.852000	33.117691	1292.392822	-371.660217	0.136694	0.000000	-0.774182	0.000000	9.806890	0.000000	-19.683516	1284.120728	401.303040	0.163471	0.000000	-1.573833	0.000000	-9.318188	-0.000000
3.853000	32.310516	1283.233765	-373.394287	0.137248	0.000000	-0.773834	0.000000	9.835196	0.000000	-18.314819	1287.934448	402.066284	0.163691	0.000000	-1.572359	0.000000	-9.019717	-0.000000
3.854000	34.045986	1297.843628	-372.989624	0.136993	0.000000	-0.774447	0.000000	9.730571	0.000000	-20.811741	1292.884033	401.503723	0.163308	0.000000	-1.573734	0.000000	-9.593521	-0.000000
3.855000	33.638973	1295.916382	-374.966858	0.137358	0.000000	-0.773365	0.000000	9.995518	0.000000	-19.201195	1304.683350	402.708954	0.164139	0.000000	-1.573986	0.000000	-9.001962	-0.000000
3.856000	33.998512	1298.196411	-374.799622	0.136269	0.000000	-0.776224	0.000000	10.372042	0.000000	-20.005983	1294.794189	403.633362	0.162830	0.000000	-1.573576	0.000000	-9.555694	-0.000000
3.857000	34.285553	1301.869141	-374.396118	0.136649	0.000000	-0.774085	0.000000	9.890237	0.000000	-20.367659	1296.541748	403.352264	0.162971	0.000000	-1.572949	0.000000	-9.472591	-0.000000
3.858000	35.579849	1301.869873	-375.240723	0.136756	0.000000	-0.774411	0.000000	9.656090	0.000000	-20.326796	1301.963013	403.432129	0.162980	0.000000	-1.573412	0.000000	-9.358583	-0.000000
3.859000	35.290146	1306.679077	-376.047333	0.136917	0.000000	-0.774387	0.000000	10.009888	0.000000	-17.714882	1297.330078	404.919342	0.162309	0.000000	-1.574410	0.000000	-9.926435	-0.000000
3.860000	35.816372	1305.232178	-375.723419	0.136735	0.000000	-0.773897	0.000000	9.871369	0.000000	-19.964294	1300.530273	404.678162	0.162967	0.000000	-1.573155	0.000000	-9.292111	-0.000000
3.861000	35.171696	1298.996460	-376.408325	0.136216	0.000000	-0.773540	0.000000	10.100088	0.000000	-19.763168	1313.118896	404.437103	0.162675	0.000000	-1.572972	0.000000	-9.414327	0.000000
3.862000	36.422707	1302.840942	-376.490295	0.136685	0.000000	-0.773875	0.000000	9.919684	0.000000	-19.924263	1308.182617	403.792206	0.163215	0.000000	-1.572682	0.000000	-9.055716	-0.000000
3.863000	38.234478	1304.272827	-380.227783	0.137042	0.000000	-0.774052	-0.000000	9.731247	0.000000	-18.795902	1310.571289	405.159973	0.163309	0.000000	-1.572804	0.000000	-8.865763	0.000000
3.864000	36.664555	1299.804443	-376.930725	0.136059	0.000000	-0.773428	0.000000	10.052872	0.000000	-18.716663	1308.015991	405.562653	0.162304	0.000000	-1.572894	0.000000	-9.478841	0.000000
3.865000	37.105724	1308.763428	-376.932129	0.136747	0.000000	-0.774823	0.000000	9.992283	0.000000	-18.916412	1304.662842	405.320313	0.161921	0.000000	-1.572623	0.000000	-9.364817	0.000000
3.866000	37.430725	1297.239624	-376.570648	0.136022	0.000000	-0.774162	0.000000	10.148749	0.000000	-18.917791	1310.884766	404.394714	0.162555	0.000000	-1.572237	0.000000	-9.164126	-0.000000
3.867000	36.332706	1303.002197	-376.771912	0.137060	0.000000	-0.776480	0.000000	10.278061	0.000000	-18.394196	1306.417969	402.944305	0.162300	0.000000	-1.572274	0.000000	-8.878398	-0.000000
3.868000	37.630810	1299.161011	-374.238953	0.136419	0.000000	-0.774142	0.000000	10.102377	0.000000	-17.025913	1315.822876	403.830994	0.162489	0.000000	-1.572523	0.000000	-8.935188	-0.000000
3.869000	37.470970	1301.394043	-376.288513	0.136787	0.000000	-0.774469	0.000000	9.851391	0.000000	-17.509615	1312.790771	404.152466	0.162195	0.000000	-1.572317	0.000000	-9.165265	-0.000000
3.870000	37.463364	1305.406006	-377.013611	0.136642	0.000000	-0.775162	0.000000	10.302809	0.000000	-16.101299	1318.369385	402.624268	0.162334	0.000000	-1.571934	0.000000	-8.969209	-0.000000
3.871000	38.034775	1293.860718	-376.244629	0.136280	0.000000	-0.774538	0.000000	9.906904	0.000000	-14.774294	1314.379517	401.860718	0.161700	0.000000	-1.572339	0.000000	-9.279787	-0.000000
3.872000	38.273964	1297.578247	-376.569000	0.136216	0.000000	-0.772271	0.000000	10.062540	0.000000	-12.804970	1315.653320	401.820435	0.161751	0.000000	-1.572435	0.000000	-9.432150	-0.000000
3.873000	38.110703	1289.608276	-376.770050	0.134090	0.000000	-0.772853	0.000000	10.972910	0.000000	-13.406838	1310.549561	401.216553	0.161317	0.000000	-1.572078	0.000000	-9.346058	-0.000000
3.874000	38.358257	1311.832153	-376.688568	0.136368	0.000000	-0.774929	0.000000	9.903584	0.000000	-12.603289	1308.639893	400.251465	0.161407	0.000000	-1.571506	0.000000	-9.368017	-0.000000
3.875000	38.920921	1312.953979	-374.434387	0.136166	0.000000	-0.776117	0.000000	10.012448	0.000000	-13.486213	1307.999878	399.647461	0.161092	0.000000	-1.571846	0.000000	-9.174778	-0.000000
3.876000	38.718937	1307.349976	-376.283875	0.136047	0.000000	-0.774663	0.000000	9.995732	0.000000	-7.900849	1311.023193	398.804443	0.160555	0.000000	-1.571443	0.000000	-10.117154	-0.000000
3.877000	38.315346	1308.315063	-375.398102	0.135874	0.000000	-0.775226	-0.000000	10.071361	0.000000	-9.185480	1297.306763	397.034607	0.160917	0.000000	-1.570577	0.000000	-9.569432	-0.000000
3.878000	39.086464	1304.321045	-375.156677	0.135661	0.000000	-0.773913	0.000000	9.860092	0.000000	-7.658032	1306.714600	396.069305	0.160566	0.000000	-1.571445	0.000000	-9.773213	-0.000000
3.879000	38.637688	1302.229248	-375.196106	0.135911	0.000000	-0.773903	0.000000	9.970536	0.000000	-7.094403	1304.486450	394.459930	0.160402	0.000000	-1.571053	0.000000	-9.632803	-0.000000
3.880000	38.677551	1302.558228	-374.913086	0.135663	0.000000	-0.773486	0.000000	10.004162	0.000000	-4.560209	1306.398071	393.857971	0.160465	0.000000	-1.571782	0.000000	-9.672793	-0.000000
3.881000	39.162010	1307.052979	-374.428772	0.135372	0.000000	-0.774069	0.000000	10.026870	0.000000	-5.125631	1302.248779	392.409790	0.159465	0.000000	-1.572198	0.000000	-10.232287	0.000000
3.882000	40.128643	1315.379883	-373.986725	0.135494	0.000000	-0.776388	0.000000	10.108672	0.000000	-3.557048	1298.577881	390.800842	0.159188	0.000000	-1.571349	0.000000	-10.239611	-0.000000
3.883000	38.676788	1294.708984	-374.467773	0.135823	0.000000	-0.771913	0.000000	9.795264	0.000000	-0.420434	1310.221436	390.278107	0.160820	0.000000	-1.572006	0.000000	-9.665840	-0.000000
3.884000	38.192333	1315.851807	-375.030090	0.135404	0.000000	-0.777671	-0.000000	10.180670	0.000000	-1.104024	1303.529053	389.473755	0.159771	0.000000	-1.571862	0.000000	-10.012346	-0.000000
3.885000	39.644947	1310.414429	-373.057800	0.135687	0.000000	-0.774856	0.000000	9.819613	0.000000	0.465112	1297.458740	387.624786	0.159081	0.000000	-1.571044	0.000000	-10.224947	-0.000000
3.886000	39.846550	1308.024902	-372.455078	0.135181	0.000000	-0.774788	0.000000	10.024070	0.000000	1.108116	1301.127075	387.020386	0.159029	0.000000	-1.571389	0.000000	-10.172460	0.000000
3.887000	39.722393	1305.775269	-372.377075	0.135359	0.000000	-0.773703	0.000000	10.155391	0.000000	1.751673	1303.041016	385.814301	0.159465	0.000000	-1.571113	0.000000	-9.982724	-0.000000
3.888000	39.683670	1303.217773	-371.247528	0.134878	0.000000	-0.774750	0.000000	10.167146	0.000000	3.118299	1298.413330	386.014587	0.158708	0.000000	-1.570969	0.000000	-10.317970	-0.000000
3.889000	39.923233	1303.862061	-371.369446	0.134830	0.000000	-0.774727	0.000000	10.329808	0.000000	4.123667	1287.090820	386.656189	0.159438	0.000000	-1.569831	0.000000	-9.923780	0.000000
3.890000	40.689789	1305.442871	-370.362061	0.135556	0.000000	-0.775505	0.000000	9.972982	0.000000	4.365655	1298.896240	385.813782	0.159049	0.000000	-1.571619	0.000000	-10.143492	-0.000000
3.891000	40.407696	1306.428345	-370.480164	0.134623	0.000000	-0.774735	0.000000	10.184649	0.000000	5.773143	1290.273682	385.170044	0.157849	0.000000	-1.570952	0.000000	-10.585525	-0.000000
3.892000	39.147556	1301.456787	-369.717773	0.135317	0.000000	-0.775993	0.000000	10.515130	0.000000	5.933688	1296.021118	384.847717	0.158544	0.000000	-1.571623	0.000000	-10.282766	-0.000000
3.893000	41.296124	1306.750610	-369.835907	0.134790	0.000000	-0.776166	0.000000	10.067905	0.000000	6.818267	1289.963013	384.847717	0.157936	0.000000	-1.571865	0.000000	-10.549370	-0.000000
